<svg xmlns="http://www.w3.org/2000/svg" data-name="Layer 1" width="717.67" height="596.329"><rect x="204.855" width="326" height="594" rx="58.728" fill="#1C1B20"/><path d="M525.355 58.732v476.54a53.292 53.292 0 0 1-53.23 53.23h-208.54a53.292 53.292 0 0 1-53.23-53.23V58.732a53.292 53.292 0 0 1 53.23-53.23h27.27v9.42a16.08 16.08 0 0 0 16.08 16.08h121.84a16.08 16.08 0 0 0 16.08-16.08v-9.42h27.27a53.292 53.292 0 0 1 53.23 53.23Z" fill="#fff"/><path d="M203.355 120.5a4.005 4.005 0 0 1-4-4v-8a4 4 0 0 1 8 0v8a4.005 4.005 0 0 1-4 4ZM203.355 161.521a4.005 4.005 0 0 1-4-4V135.5a4 4 0 0 1 8 0v22.021a4.005 4.005 0 0 1-4 4ZM203.355 194.5a4.005 4.005 0 0 1-4-4v-22.021a4 4 0 0 1 8 0V190.5a4.005 4.005 0 0 1-4 4ZM531.355 176.5a4.005 4.005 0 0 1-4-4v-53.733a4 4 0 0 1 8 0V172.5a4.005 4.005 0 0 1-4 4Z" fill="#1C1B20"/><path d="M376.447 18.346h-31a2.5 2.5 0 0 1 0-5h31a2.5 2.5 0 0 1 0 5Z" fill="#fff"/><circle cx="392.447" cy="15.846" r="2" fill="#fff"/><path d="M632.752 569.017a3.564 3.564 0 0 0 2.524-6.201l-.253-.969a9.575 9.575 0 0 1 17.748-.336c4.318 9.846 9.881 20.028 7.267 30.943 17.594-38.228 11.036-85.508-15.81-117.8-7.374-3.971-13.388-11.094-15.015-19.415 3.642 1.196 8.14-1.8 5.374-5.598-1.197-1.45-2.405-2.889-3.602-4.34 13.65-14.817 30.3 8.108 15.31 28.075a114.265 114.265 0 0 1 13.024 19.95 48.043 48.043 0 0 1 2.656-22.341c2.682-6.65 7.775-12.276 12.251-18.044 5.443-7.029 16.813-3.918 17.64 4.927-5.07 1.72-5.66 9.07.166 10.02-1.367 16.484-11.982 31.721-26.732 39.085a114.71 114.71 0 0 1 6.725 47.885c2.435-19.01 22.77-23.812 36.944-31.494a5.55 5.55 0 0 1 8.516 5.54 32.05 32.05 0 0 0-5.59 3.017 4.844 4.844 0 0 0 2.335 8.821c-7.011 17.84-25.462 29.95-44.529 30.064a117.93 117.93 0 0 1-7.7 23.201l-28.3.27c-.104-.314-.198-.638-.292-.951a32.153 32.153 0 0 0 7.825-.541c-7.008-8.14-12.407-12.274-8.483-23.767ZM84.997 569.017a3.564 3.564 0 0 1-2.524-6.201l.253-.969a9.575 9.575 0 0 0-17.748-.336c-4.318 9.846-9.882 20.028-7.267 30.943-17.594-38.228-11.037-85.508 15.81-117.8 7.374-3.971 13.388-11.094 15.015-19.415-3.642 1.196-8.14-1.8-5.374-5.598 1.197-1.45 2.405-2.889 3.602-4.34-13.65-14.817-30.3 8.108-15.31 28.075a114.265 114.265 0 0 0-13.024 19.95 48.043 48.043 0 0 0-2.656-22.341c-2.682-6.65-7.775-12.276-12.252-18.044-5.443-7.029-16.813-3.918-17.638 4.927 5.068 1.72 5.659 9.07-.167 10.02 1.367 16.484 11.982 31.721 26.732 39.085a114.71 114.71 0 0 0-6.725 47.885c-2.435-19.01-22.771-23.812-36.944-31.494a5.55 5.55 0 0 0-8.516 5.54 32.05 32.05 0 0 1 5.59 3.017 4.844 4.844 0 0 1-2.335 8.821c7.01 17.84 25.461 29.95 44.528 30.064a117.93 117.93 0 0 0 7.702 23.201l28.298.27c.105-.314.199-.638.293-.951a32.153 32.153 0 0 1-7.826-.541c7.009-8.14 12.408-12.274 8.484-23.767Z" fill="#f2f2f2"/><path d="M278.94 29.073h-27a5 5 0 0 1 0-10h27a5 5 0 0 1 0 10Z" fill="#e6e6e6"/><circle cx="455.941" cy="24.073" r="4.5" fill="#e6e6e6"/><circle cx="469.941" cy="24.073" r="4.5" fill="#e6e6e6"/><circle cx="483.941" cy="24.073" r="4.5" fill="#e6e6e6"/><path d="M452.794 98.957h-169.7a12.417 12.417 0 0 0-12.4 12.4v110.31a12.417 12.417 0 0 0 12.4 12.4h169.7a12.41 12.41 0 0 0 12.4-12.4v-110.31a12.41 12.41 0 0 0-12.4-12.4Z" fill="#f2f2f2"/><path d="M399.667 146.049a791.404 791.404 0 0 1-50.682 78.42h-26.612q26.147-31.853 52.332-63.707c5.008-6.114 10.443-12.52 17.955-15.004Z" fill="#1C1B20"/><path d="M364.3 141.7a134.585 134.585 0 0 0-7.938 9.027c-5.513 6.638-10.948 13.335-16.403 20.013a2851.213 2851.213 0 0 0-10.151 12.461 24.789 24.789 0 0 1-3.028-2.29 27.16 27.16 0 0 1 34.706-41.772 25.035 25.035 0 0 1 2.815 2.562Z" fill="#ff5851"/><path d="M465.194 138.547v4.03l-1.8-.66-25.33-9.26c-8.25-3.01-16.48-6.45-25-8.62a39.402 39.402 0 0 0-22.64.29 51.95 51.95 0 0 0-17.64 10.95 146.73 146.73 0 0 0-6.54 6.42c-.69.73-1.38 1.46-2.06 2.19-2.04 2.22-4.01 4.49-5.88 6.84-5.51 6.64-10.95 13.34-16.4 20.01-3.4 4.16-6.8 8.31-10.16 12.46q-16.83 20.595-33.46 41.27a19.537 19.537 0 0 1-4.43-.56q16.965-21.075 34.09-42.04l.78-.96c1.34-1.67 2.71-3.35 4.07-5.02q8.535-10.455 17.08-20.89c4.14-5.06 8.25-10.14 12.71-14.94.27-.31.55-.61.84-.92.43-.46.86-.91 1.3-1.38 9.69-10.01 21.78-18.86 36.26-19.1 8.52-.13 16.75 2.57 24.67 5.42 8.53 3.09 17.03 6.23 25.55 9.35Z" fill="#1C1B20"/><path d="M469.185 477.618h-202.66a12.413 12.413 0 0 1-12.398-12.399v-27.313a12.413 12.413 0 0 1 12.399-12.399h202.659a12.413 12.413 0 0 1 12.399 12.4v27.312a12.413 12.413 0 0 1-12.4 12.4ZM469.185 337.618h-202.66a12.413 12.413 0 0 1-12.398-12.399v-27.313a12.413 12.413 0 0 1 12.399-12.399h202.659a12.413 12.413 0 0 1 12.399 12.4v27.312a12.413 12.413 0 0 1-12.4 12.4ZM469.185 407.618h-202.66a12.413 12.413 0 0 1-12.398-12.399v-27.313a12.413 12.413 0 0 1 12.399-12.399h202.659a12.413 12.413 0 0 1 12.399 12.4v27.312a12.413 12.413 0 0 1-12.4 12.4Z" fill="#f2f2f2"/><path d="M392.477 446.888h-59.712a2.671 2.671 0 0 1 0-5.342h59.712a2.671 2.671 0 0 1 0 5.342ZM449.907 461.58h-117.81a2.671 2.671 0 0 1 0-5.343h117.81a2.671 2.671 0 0 1 0 5.343Z" fill="#fff"/><circle cx="301.042" cy="451.563" r="17.909" fill="#fff"/><path d="M297.051 475.754a7.744 7.744 0 0 0-10.202 3.547 7.431 7.431 0 0 0-.44 1.147l-26.969 1.612-3.997 13.972 36.706-6.202a7.723 7.723 0 0 0 8.487-4.106 7.39 7.39 0 0 0-3.401-9.883q-.091-.045-.184-.087Z" fill="#ffb6b6"/><path d="M237.522 406.834a13.373 13.373 0 0 0-18.045 9.163l-7.414 29.943 1.395 52.383s38.702 7.427 45.199 2.653 5.887-8.327 6.497-4.773 3.399 5.044 3.437 3.63.354-1.172 1.973-1.597 8.765-3.06 8.765-3.06l.32-14.935s-11.813-4.479-14.68-3.143.61 3.554-2.865 1.337-3.856-9.216-4.45-2.909-2.335 7.482-4.941 4.677-14.68-1.013-14.68-1.013l7.683-58.23a13.373 13.373 0 0 0-8.194-14.126Z" fill="#ff5851"/><path fill="#ffb6b6" d="m498.157 562.178.407-11.03-42.352-6.819-.6 16.279 42.545 1.57z"/><path d="m490.47 565.499-.402-17.66 7.55.278 12.188-16.327a4.72 4.72 0 0 1 8.498 2.997l-.774 20.98-7.601 3.34 7.416 1.688-.292 7.91ZM259.798 587.472l134.143-15.598s57.927 3.346 71.518-5.496l14.333-1.81.777-21.052s-8.765.065-13.804-2.283-1.536-5.22-6.34-2.396-4.298 3.165-8.012 1.866-174.05-8.26-174.05-8.26Z" fill="#1C1B20"/><path fill="#ffb6b6" d="m436.563 578.337 7.8-7.81-26.41-33.803-11.512 11.526 30.122 30.087z"/><path d="m428.668 575.543 11.717-13.22 5.346 5.339 20.04-3.68a4.72 4.72 0 0 1 4.191 7.978l-14.836 14.853-7.845-2.72 4.29 6.28-5.595 5.6Z" fill="#1C1B20"/><path d="m206.874 514.007 1.334 31c1.57 36.493 41.76 58.58 72.923 39.526q.862-.526 1.729-1.091s11.814-3.173 11.456-8.197 2.527-7.47 5.081-6.1 35.996-46.09 35.996-46.09 69.482 34.658 84.81 42.817l16.174-4.406s6.087 2.875 3.894-1.283-2.586-2.167-3.26-6.697-2.396-10.147-3.441-9.91-85.957-59.195-85.957-59.195-13.833-14-30.993-4.757c-.357 1.358-.052 1.405-.052 1.405l-56.684 46.189-8.01-15.21Z" fill="#1C1B20"/><path d="m244.973 400.104-24.304-11.39-7.276 12.66s-19.542 27.887-19.825 48.005 3.185 26.1 3.185 26.1-8.426 6.3-4.213 10.15 13.54 5.512 6.376 7.182-5.348 18.568 2.652 21.568 50.964 2.974 50.964 2.974a7.651 7.651 0 0 1 1.89-7.535c3.33-3.338 6.33-.942 3.33-6.14s-8-2.198-4-9.198 4-9.092 4-9.092 8.154-15.519-4.129-32.355c-.749-1.026-.12-1.065-.12-1.065l-9.917-33.236Z" fill="#ff5851"/><path d="M205.806 352.211c.206 5.134-3.03 12.407-4.622 16.793-1.704 4.689 5.679 10.913 10.404 12.276a6.99 6.99 0 0 1 2.289-4.197 11.967 11.967 0 0 0-.087 4.708l39.947 9.094c7.187-8.322 14.413-20.286 12.837-34.716a14.04 14.04 0 0 0-6.761-14l-20.196-11.93c-8.59-1.957-19.408-3.137-25.612 2.178a24.575 24.575 0 0 0-8.199 19.794Z" fill="#1C1B20"/><circle cx="241.514" cy="363.489" r="23" fill="#ffb6b6"/><path d="m214.57 351.2-1.11 4.876 19.403 4.418a7.156 7.156 0 0 1 2.386-5.21 12.192 12.192 0 0 0 .14 5.784c10.464 5.872 19.896 7.953 28.353 6.455a4.43 4.43 0 0 0 5.304-3.336c3.403-14.948-5.512-30.225-20.386-33.935a27.997 27.997 0 0 0-34.09 20.949Z" fill="#1C1B20"/><path d="M225.914 319.035c2.558-.555 5.266-.42 7.58-2.154l-1.518 3.483a17.626 17.626 0 0 1 12.585 1.257 6.73 6.73 0 0 1 2.85 2.412 4.957 4.957 0 0 1 .374 4.27 4.641 4.641 0 0 1-2.718 2.58 8.963 8.963 0 0 1-3.325.349l-14.167-.33a10.591 10.591 0 0 1-5.224-1.016 5.22 5.22 0 0 1-2.424-5.183c.45-3.166 3.428-5.112 5.987-5.668Z" fill="#1C1B20"/><path d="M350.679 499.296a.98.98 0 0 0-.189-.173 2.012 2.012 0 0 0-.616-.482l-1.683-.901-11.173-12.405a2.806 2.806 0 0 0-2.098-.2l-.029.008-4.786 1.48-4.117 1.278-5.75 1.782-39.166 12.128-25.745 7.97a2.785 2.785 0 0 0-1.83 3.448 2.898 2.898 0 0 0 .588 1.045l.82.912 1.718 1.914 3.981 8.25 1.105 1.233a2.775 2.775 0 0 0 2.866.804l84.814-23.584a2.824 2.824 0 0 0 1.29-4.507Z" fill="#ccc"/><path d="m345.643 376.59-1.642.267a1.728 1.728 0 0 0-1.12.694l-.723 1.012-6.528 16.322a1.728 1.728 0 0 0-.296 1.288l.764 4.65-2.89 83.006a1.748 1.748 0 0 0 .647 1.084l12.673 16.953.295.235.639.5a1.756 1.756 0 0 0 1.146.364l1.077-.051a1.73 1.73 0 0 0 1.266-.646 1.704 1.704 0 0 0 .36-1.37l-3.677-122.888a1.725 1.725 0 0 0-1.982-1.421Z" fill="#ccc"/><path fill="#ff5851" d="m342.893 383.04-5.782 17.613-2.237 70.354 9 8-.981-95.967z"/><path d="M298.18 490.357a7.744 7.744 0 0 0-10.203 3.547 7.43 7.43 0 0 0-.44 1.147l-26.969 1.611-3.997 13.973 36.706-6.202a7.723 7.723 0 0 0 8.487-4.107 7.39 7.39 0 0 0-3.4-9.883l-.184-.086Z" fill="#ffb6b6"/><path d="M238.65 421.437a13.373 13.373 0 0 0-18.044 9.162l-7.415 29.943 1.395 52.384s38.702 7.426 45.2 2.653 5.886-8.328 6.496-4.774 3.399 5.045 3.438 3.631.354-1.172 1.973-1.598 8.765-3.06 8.765-3.06l.32-14.935s-11.814-4.478-14.68-3.142.61 3.554-2.866 1.336-3.856-9.216-4.45-2.908-2.335 7.481-4.94 4.677-14.681-1.013-14.681-1.013l7.683-58.23a13.373 13.373 0 0 0-8.193-14.126Z" fill="#ff5851"/><path d="M0 595.14a1.186 1.186 0 0 0 1.19 1.19h715.29a1.19 1.19 0 0 0 0-2.38H1.19A1.187 1.187 0 0 0 0 595.14Z" fill="#ccc"/><path d="M631.185 337.618h-202.66a12.413 12.413 0 0 1-12.398-12.399v-27.313a12.413 12.413 0 0 1 12.399-12.399h202.659a12.413 12.413 0 0 1 12.399 12.4v27.312a12.413 12.413 0 0 1-12.4 12.4Z" fill="#e6e6e6"/><path d="M554.477 306.888h-59.712a2.671 2.671 0 1 1 0-5.342h59.712a2.671 2.671 0 1 1 0 5.342ZM611.907 321.58h-117.81a2.671 2.671 0 1 1 0-5.343h117.81a2.671 2.671 0 0 1 0 5.343Z" fill="#fff"/><circle cx="463.042" cy="311.563" r="17.909" fill="#fff"/><path d="M566.185 407.618h-202.66a12.413 12.413 0 0 1-12.398-12.399v-27.313a12.413 12.413 0 0 1 12.399-12.399h202.659a12.413 12.413 0 0 1 12.399 12.4v27.312a12.413 12.413 0 0 1-12.4 12.4Z" fill="#e6e6e6"/><path d="M489.477 376.888h-59.712a2.671 2.671 0 1 1 0-5.342h59.712a2.671 2.671 0 0 1 0 5.342ZM546.907 391.58h-117.81a2.671 2.671 0 0 1 0-5.343h117.81a2.671 2.671 0 0 1 0 5.343Z" fill="#fff"/><circle cx="398.042" cy="381.563" r="17.909" fill="#fff"/></svg>